<?xml version="1.0" encoding="UTF-8"?>
<svg version="1.1" xmlns="http://www.w3.org/2000/svg" width="24" height="24">
<path d="M0 0 C4.95 0 9.9 0 15 0 C16.86792605 5.60377814 17.44083718 7.54540212 16 13 C14.67151309 14.00642948 13.33849671 15.00692179 12 16 C11.66602213 19.12586875 11.66602213 19.12586875 12 22 C9.03 22 6.06 22 3 22 C3.33 21.01 3.66 20.02 4 19 C3.401875 18.896875 2.80375 18.79375 2.1875 18.6875 C-0.31258286 17.90175967 -1.37535082 17.03081147 -3 15 C-3 14.34 -3 13.68 -3 13 C-2.01 13 -1.02 13 0 13 C-0.33 12.67 -0.66 12.34 -1 12 C-1.1453415 7.56708416 -1.08169281 4.32677122 0 0 Z M1 14 C1.33 14.66 1.66 15.32 2 16 C2.66 15.67 3.32 15.34 4 15 C3.01 14.67 2.02 14.34 1 14 Z " fill="#000000" transform="translate(5,1)"/>
</svg>
