<?xml version="1.0" encoding="UTF-8"?>
<svg version="1.1" xmlns="http://www.w3.org/2000/svg" width="24" height="24">
<path d="M0 0 C1.8253125 -0.01546875 1.8253125 -0.01546875 3.6875 -0.03125 C7 0.5 7 0.5 9.40625 2.09375 C11.55946564 5.34468341 11.53284528 7.6242568 11.5 11.5 C11.5103125 12.716875 11.520625 13.93375 11.53125 15.1875 C11 18.5 11 18.5 9.40625 20.90625 C6.15531659 23.05946564 3.8757432 23.03284528 0 23 C-1.8253125 23.01546875 -1.8253125 23.01546875 -3.6875 23.03125 C-7 22.5 -7 22.5 -9.40625 20.90625 C-11.55946564 17.65531659 -11.53284528 15.3757432 -11.5 11.5 C-11.5103125 10.283125 -11.520625 9.06625 -11.53125 7.8125 C-11 4.5 -11 4.5 -9.40625 2.09375 C-6.15531659 -0.05946564 -3.8757432 -0.03284528 0 0 Z M-6.80078125 4.69921875 C-8.38170919 7.07318546 -8.40032442 8.66366509 -8.375 11.5 C-8.38273438 12.36625 -8.39046875 13.2325 -8.3984375 14.125 C-8.16540435 16.52271162 -8.16540435 16.52271162 -6.7890625 18.2890625 C-4.42324094 19.89038277 -2.83984842 19.90035579 0 19.875 C0.86625 19.88273437 1.7325 19.89046875 2.625 19.8984375 C5.02155436 19.66280975 5.02155436 19.66280975 6.80078125 18.30078125 C8.42216643 15.86606279 8.30040249 14.21033065 8.1875 11.3125 C8.16042969 10.41144531 8.13335938 9.51039062 8.10546875 8.58203125 C8.07066406 7.89496094 8.03585938 7.20789063 8 6.5 C7.01 6.83 6.02 7.16 5 7.5 C5.061875 8.428125 5.12375 9.35625 5.1875 10.3125 C5 13.5 5 13.5 3.875 15.4375 C1.07329973 17.02513015 -0.96985644 16.24070176 -4 15.5 C-5.3260274 10.07534247 -5.3260274 10.07534247 -3.9375 7.625 C-1.24099753 6.05928889 0.94130459 6.29608697 4 6.5 C4.33 5.51 4.66 4.52 5 3.5 C3.39667209 3.41878076 1.79215974 3.36070866 0.1875 3.3125 C-0.70582031 3.27769531 -1.59914063 3.24289063 -2.51953125 3.20703125 C-5.01161651 3.31155562 -5.01161651 3.31155562 -6.80078125 4.69921875 Z M-1 8.5 C-1.66 9.82 -2.32 11.14 -3 12.5 C-1.02 13.49 -1.02 13.49 1 14.5 C1.66 13.18 2.32 11.86 3 10.5 C1.68 9.84 0.36 9.18 -1 8.5 Z " fill="#000000" transform="translate(12,0.5)"/>
</svg>
