<?xml version="1.0" encoding="UTF-8"?>
<svg version="1.1" xmlns="http://www.w3.org/2000/svg" width="24" height="24">
<path d="M0 0 C2.97 0.495 2.97 0.495 6 1 C7.125 3.5 7.125 3.5 8 6 C10.04105639 6.88693303 10.04105639 6.88693303 12 7 C12.04254356 8.99954746 12.04080783 11.00041636 12 13 C11 14 11 14 8.49609375 14.09765625 C5.6640625 14.06510417 2.83203125 14.03255208 0 14 C0 9.38 0 4.76 0 0 Z " fill="#000000" transform="translate(12,5)"/>
<path d="M0 0 C0.99 0.495 0.99 0.495 2 1 C2 4.96 2 8.92 2 13 C1.34 13 0.68 13 0 13 C0 8.71 0 4.42 0 0 Z " fill="#000000" transform="translate(9,6)"/>
<path d="M0 0 C0.99 0.495 0.99 0.495 2 1 C2 3.97 2 6.94 2 10 C1.34 10 0.68 10 0 10 C0 6.7 0 3.4 0 0 Z " fill="#000000" transform="translate(6,9)"/>
<path d="M0 0 C0.99 0.495 0.99 0.495 2 1 C2 3.97 2 6.94 2 10 C1.34 10 0.68 10 0 10 C0 6.7 0 3.4 0 0 Z " fill="#000000" transform="translate(3,9)"/>
<path d="M0 0 C0.66 0 1.32 0 2 0 C2 1.98 2 3.96 2 6 C1.34 6 0.68 6 0 6 C0 4.02 0 2.04 0 0 Z " fill="#000000" transform="translate(0,12)"/>
</svg>
